<svg xmlns="http://www.w3.org/2000/svg" width="113" height="106" viewBox="0 0 113 106" fill="none"><g clip-path="url(#clip0_31_78)"><path d="M84.5738 47.3172C84.5318 42.3926 82.5406 37.6836 79.0331 34.2139C75.5256 30.7442 70.7853 28.7943 65.8428 28.7881H54.8431V48.2229H51.0669V28.7881H40.0817C35.1417 28.7943 30.4036 30.7421 26.8965 34.2087C23.3894 37.6753 21.3965 42.3806 21.3507 47.3027V69.4643H25.5427V47.4713C25.5465 43.6299 27.0794 39.9468 29.805 37.23C32.5306 34.5133 36.2264 32.9847 40.0817 32.9796H41.5805V48.2229H32.7469V54.8714H41.5805V69.739H51.0718V54.8521H54.8479V69.739H64.344V54.8521H73.1776V48.2036H64.344V32.9796H65.8428C69.6981 32.9847 73.3939 34.5133 76.1195 37.23C78.8451 39.9468 80.378 43.6299 80.3818 47.4713V69.4788H84.569V47.3172H84.5738Z" fill="#26356B"></path><path d="M53.1895 106.002C42.6704 106.002 32.3875 102.894 23.6412 97.0708C14.8949 91.2476 8.07793 82.9709 4.05244 73.2873C0.0269547 63.6037 -1.0263 52.9481 1.02587 42.6681C3.07805 32.388 8.14349 22.9452 15.5816 15.5337C23.0198 8.12216 32.4965 3.07486 42.8135 1.03003C53.1305 -1.0148 63.8243 0.0346805 73.5427 4.04576C83.2611 8.05684 91.5676 14.8494 97.4117 23.5644C103.256 32.2794 106.375 42.5255 106.375 53.0069C106.358 67.057 100.75 80.5269 90.779 90.4619C80.8084 100.397 67.2901 105.986 53.1895 106.002ZM53.1895 2.90239C43.2442 2.90239 33.5222 5.84097 25.2529 11.3465C16.9837 16.8521 10.5386 24.6773 6.73265 33.8327C2.92673 42.9882 1.93092 53.0625 3.87116 62.7818C5.8114 72.5012 10.6005 81.4289 17.633 88.4362C24.6654 95.4434 33.6252 100.215 43.3795 102.149C53.1337 104.082 63.2443 103.09 72.4326 99.2975C81.6209 95.5052 89.4742 89.0832 94.9996 80.8435C100.525 72.6039 103.474 62.9167 103.474 53.0069C103.461 39.7205 98.1599 26.9816 88.7331 17.5849C79.3062 8.1882 66.5236 2.90097 53.1895 2.88312V2.90239Z" fill="#26356B"></path><path d="M19.1314 36.2749L15.9064 30.2334L16.6268 29.1109L23.5023 29.4241L22.6658 30.7345L21.1766 30.6381L19.1314 33.8323L19.8615 35.1138L19.1314 36.2749ZM18.556 32.7579L19.9582 30.5562L17.1974 30.3394L18.556 32.7579Z" fill="#26356B"></path><path d="M24.6143 28.3064L20.3643 24.1294L21.3313 23.1658L24.7787 26.5382L27.9264 23.3585L28.7241 24.1486L24.6143 28.3064Z" fill="#26356B"></path><path d="M31.5865 16.315L28.4437 18.3481L30.5034 21.5037L33.6366 19.4706L32.9403 18.4011L34.2651 17.8856L34.6471 18.4782C34.904 18.7842 35.0291 19.179 34.9952 19.5766C34.839 19.961 34.5465 20.2747 34.1732 20.4582L31.1852 22.3853C30.863 22.649 30.456 22.7877 30.0393 22.7756C29.6722 22.6445 29.3661 22.384 29.1786 22.0433L27.467 19.4128C27.2141 19.1065 27.0894 18.7148 27.1189 18.3192C27.1769 18.0397 27.4525 17.7459 27.9409 17.4279L30.9289 15.5008C31.25 15.2357 31.6582 15.0984 32.0748 15.1154C32.4519 15.247 32.7624 15.5201 32.9403 15.8766L33.2449 16.3583L32.2006 17.3219L31.5865 16.315Z" fill="#26356B"></path><path d="M36.0541 14.2964C35.8836 13.9372 35.8594 13.5263 35.9864 13.1497C36.2303 12.8102 36.5922 12.5732 37.0017 12.4849L41.1599 11.0733C41.5266 10.895 41.9459 10.8556 42.3396 10.9625C42.6736 11.187 42.9062 11.5329 42.9875 11.926L44.0029 14.8938C44.1767 15.2535 44.2028 15.6666 44.0754 16.0452C43.8265 16.3775 43.4663 16.61 43.0601 16.7004L38.9019 18.1168C38.5243 18.2948 38.0944 18.3291 37.6932 18.2132C37.3592 17.9886 37.1266 17.6428 37.0453 17.2496L36.0541 14.2964ZM38.4716 17.0858L42.8232 15.6116L41.5999 12.0465L37.2483 13.5207L38.4716 17.0858Z" fill="#26356B"></path><path d="M46.9329 15.7417L46.5123 9.81103L47.9 9.70986L48.0644 12.0127L52.4159 11.7092L52.2515 9.40634L53.6488 9.30999L54.0695 15.2454L52.6722 15.3418L52.4884 12.7884L48.1659 13.0919L48.3448 15.6453L46.9329 15.7417Z" fill="#26356B"></path><path d="M57.4008 10.9047C57.4234 10.5106 57.5964 10.14 57.8843 9.86885C58.2647 9.69851 58.6941 9.67113 59.0931 9.79176L63.4156 10.5963C63.8314 10.6289 64.2213 10.8103 64.5132 11.107C64.6908 11.463 64.7254 11.8731 64.6099 12.2536L64.0297 15.3322C64.0041 15.7269 63.8317 16.0979 63.5462 16.3728C63.1634 16.541 62.7327 16.5667 62.3326 16.4451L58.0149 15.6405C57.599 15.6123 57.2082 15.4322 56.9173 15.1346C56.7368 14.7795 56.7021 14.3682 56.8206 13.988L57.4008 10.9047ZM58.1358 14.5228L62.6469 15.3611L63.3431 11.661L58.8368 10.8228L58.1358 14.5228Z" fill="#26356B"></path><path d="M66.1716 17.6013L68.5891 12.1573L69.8559 12.7161L67.9219 17.134L72.022 18.931L71.5675 19.9572L66.1716 17.6013Z" fill="#26356B"></path><path d="M72.9939 20.9834L76.2237 15.9777L77.3938 16.7438L74.164 21.7446L72.9939 20.9834Z" fill="#26356B"></path><path d="M83.4859 23.0454L80.7348 20.5161L78.1722 23.2863L80.9234 25.8156L81.7937 24.8761L82.6205 26.0276L82.137 26.5431C81.9049 26.8617 81.5586 27.0791 81.17 27.1501C80.7565 27.0965 80.3775 26.8923 80.1062 26.5768L77.4856 24.1679C77.1493 23.9237 76.9139 23.5657 76.8232 23.161C76.8604 22.7632 77.0511 22.3953 77.3551 22.1348L79.4873 19.8319C79.7199 19.5129 80.0657 19.2942 80.4544 19.2201C80.8675 19.278 81.2455 19.4834 81.5181 19.7982L84.1387 22.2071C84.4755 22.4521 84.7096 22.8124 84.7962 23.2188C84.7589 23.6155 84.5703 23.9828 84.2692 24.245L83.8872 24.6545L82.7172 23.8788L83.4859 23.0454Z" fill="#26356B"></path><path d="M89.641 30.8212L87.4459 27.5981L86.387 28.3064L88.4757 31.3753C88.7501 31.6926 88.8995 32.0983 88.8964 32.5171C88.7683 32.8941 88.5001 33.2079 88.1469 33.3939L87.47 33.8757C87.1674 34.1352 86.7759 34.2681 86.3773 34.2466C85.9843 34.0962 85.6595 33.8085 85.4635 33.4372L83.3941 30.3972C83.119 30.0785 82.9696 29.671 82.9734 29.2506C83.1021 28.8752 83.3703 28.5631 83.7229 28.3786L83.8582 28.2871L84.7576 29.1543L84.1725 29.5493L86.5417 33.0277L87.6683 32.2665L85.5795 29.1976C85.305 28.883 85.1584 28.4774 85.1685 28.0606C85.2948 27.6826 85.5635 27.3682 85.918 27.1838L86.4643 26.8177C86.7652 26.5585 87.1551 26.4255 87.5522 26.4467C87.8327 26.4997 88.1373 26.7695 88.4612 27.2464L90.3662 30.0407C90.6298 30.3542 90.7752 30.7495 90.7772 31.1585C90.7308 31.3362 90.6474 31.5023 90.5325 31.6459C90.4175 31.7894 90.2736 31.9074 90.11 31.9919L90.0084 32.0642L89.0849 31.197L89.641 30.8212Z" fill="#26356B"></path><path d="M12.9812 73.6269L19.9727 73.2511L20.7076 74.3977L17.4536 80.603L16.5978 79.2636L17.3231 77.9388L15.244 74.6916L13.7403 74.812L12.9812 73.6269ZM16.5011 74.5904L17.9516 76.8307L19.3296 74.4218L16.5011 74.5904Z" fill="#26356B"></path><path d="M19.4602 82.9299L23.6715 78.5458L24.3726 79.2106L24.9866 84.751C24.9866 84.9389 25.0253 85.1076 25.0302 85.2617C25.0399 85.4093 25.0399 85.5574 25.0302 85.7049L25.5137 85.1509L25.7312 84.9052L27.9457 82.6071L28.8644 83.484L24.653 87.8681L23.9519 87.1985L23.3282 81.4172C23.3282 81.2726 23.3282 81.1474 23.3041 81.0366C23.2968 80.9291 23.2968 80.8212 23.3041 80.7138L22.9656 81.1233C22.8544 81.2534 22.7577 81.3593 22.6755 81.4461L20.3982 83.8164L19.4602 82.9299Z" fill="#26356B"></path><path d="M30.252 86.3313C30.41 85.9568 30.7059 85.6569 31.0788 85.493C31.5026 85.4484 31.928 85.5617 32.2731 85.8109L36.1895 87.9886C36.7068 88.2728 37.0066 88.557 37.0888 88.8365C37.1439 89.2372 37.0436 89.6438 36.8083 89.9735L35.2418 92.7678C34.971 93.2527 34.6954 93.5322 34.415 93.606C33.9912 93.6506 33.5658 93.5373 33.2207 93.2881L29.3044 91.1105C28.787 90.8262 28.4872 90.542 28.405 90.2673C28.3496 89.8644 28.4517 89.4556 28.6903 89.1255L30.252 86.3313ZM29.7685 90.0698L33.8493 92.339L35.7301 88.9666L31.7025 86.7119L29.7685 90.0698Z" fill="#26356B"></path><path d="M38.4716 95.5572L39.9898 89.6748L40.9278 89.9157L44.1818 94.4492C44.287 94.5828 44.3839 94.7228 44.4719 94.8683C44.5518 94.9942 44.6244 95.1245 44.6895 95.2585C44.7523 94.9213 44.7959 94.6852 44.8249 94.5455C44.8539 94.4058 44.8781 94.2998 44.8974 94.2275L45.6952 91.1394L46.9281 91.4573L45.4099 97.335L44.4719 97.0941L41.0874 92.3534C41.0052 92.233 40.9375 92.127 40.8795 92.0306C40.818 91.9408 40.7646 91.8456 40.7199 91.7464C40.6909 91.9343 40.6619 92.1077 40.628 92.2715C40.5942 92.4353 40.5652 92.5751 40.5313 92.6955L39.7142 95.8704L38.4716 95.5572Z" fill="#26356B"></path><path d="M51.2652 97.8264L51.3377 95.1092L48.2626 91.6741L50.1531 91.7223L52.1838 94.1312L54.3403 91.8524L56.0083 91.9006L52.764 95.1333L52.6915 97.8842L51.2652 97.8264Z" fill="#26356B"></path><path d="M58.5371 97.7204L57.2993 91.7753L58.421 91.5441L61.9796 94.5551L63.9813 90.3926L65.0934 90.1662L66.3312 96.1113L65.0451 96.3763L64.2811 92.7003C64.2811 92.6329 64.2521 92.5413 64.2376 92.4305C64.2231 92.3197 64.2086 92.1945 64.1989 92.0547C64.1554 92.2282 64.1167 92.3679 64.078 92.4787C64.0506 92.5724 64.0166 92.6642 63.9765 92.7533L62.3568 96.1835L62.0812 96.2414L59.214 93.7265C59.1076 93.6301 59.0157 93.5386 58.9336 93.4519C58.8599 93.3699 58.792 93.283 58.7305 93.1917C58.7692 93.3122 58.7982 93.423 58.8272 93.5241C58.8562 93.6253 58.8755 93.7217 58.8949 93.8132L59.6588 97.4892L58.5371 97.7204Z" fill="#26356B"></path><path d="M68.1056 90.5805C67.8815 90.2411 67.7967 89.8289 67.8687 89.4291C67.9606 89.1544 68.27 88.8847 68.8019 88.6149L72.8005 86.601C73.1573 86.3681 73.5868 86.2723 74.0092 86.3313C74.3751 86.5086 74.6589 86.819 74.8022 87.1984L76.2527 90.0506C76.4759 90.3903 76.5607 90.8021 76.4896 91.202C76.2889 91.5768 75.9567 91.8649 75.5565 92.0114L71.5627 94.0396C71.2059 94.2726 70.7764 94.3684 70.3539 94.3094C69.9868 94.1313 69.7028 93.819 69.561 93.4374L68.1056 90.5805ZM70.9583 93.052L75.1261 90.9418L73.3807 87.5164L69.2129 89.6266L70.9583 93.052Z" fill="#26356B"></path><path d="M77.3841 83.4551L80.6526 87.1551L83.6842 84.4957L80.4157 80.8198L81.4746 79.8899L84.5496 83.3683C84.8517 83.6408 85.037 84.0186 85.067 84.4234C84.965 84.8359 84.7158 85.1972 84.3659 85.44L81.4649 87.9741C81.1788 88.2872 80.7892 88.4873 80.3673 88.5378C79.9662 88.4568 79.6116 88.2258 79.3762 87.8922L76.3059 84.4138L77.3841 83.4551Z" fill="#26356B"></path><path d="M87.2138 74.0749L84.9365 77.3365L86.0098 78.0833L88.1808 74.9758C88.3828 74.5991 88.7166 74.3094 89.1188 74.1616C89.5266 74.1409 89.9261 74.2811 90.2308 74.5519L90.9174 75.0337C91.2759 75.226 91.5461 75.5487 91.6717 75.9346C91.6693 76.3616 91.5132 76.7736 91.2317 77.0956L89.0801 80.1742C88.8763 80.5495 88.5431 80.8387 88.1421 80.9884C87.735 81.0045 87.3371 80.8649 87.03 80.5981L86.8898 80.5018L87.3733 79.3311L87.9632 79.7454L90.4243 76.2236L89.2832 75.4335L87.1122 78.5361C86.9115 78.911 86.5793 79.1991 86.1791 79.3455C85.7712 79.3614 85.3729 79.2199 85.067 78.9505L84.5158 78.5699C84.1583 78.3764 83.8885 78.0541 83.7616 77.669C83.7589 77.2433 83.9138 76.8316 84.1967 76.5127L86.1742 73.6847C86.3738 73.3184 86.6977 73.0348 87.0881 72.8849C87.2754 72.8647 87.465 72.8833 87.6447 72.9397C87.8245 72.9961 87.9905 73.089 88.1324 73.2125L88.234 73.2848L87.7505 74.4748L87.2138 74.0749Z" fill="#26356B"></path><path d="M108.067 102.133C107.092 102.134 106.137 101.847 105.326 101.307C104.514 100.768 103.881 100 103.507 99.1021C103.133 98.204 103.035 97.2155 103.225 96.2618C103.415 95.3082 103.885 94.4321 104.575 93.7446C105.265 93.057 106.144 92.5889 107.102 92.3994C108.059 92.21 109.051 92.3077 109.952 92.6802C110.853 93.0528 111.624 93.6834 112.165 94.4922C112.707 95.3011 112.995 96.2518 112.994 97.2242C112.992 98.5254 112.472 99.7726 111.548 100.693C110.625 101.613 109.373 102.131 108.067 102.133ZM108.067 93.2688C107.282 93.2678 106.514 93.499 105.861 93.9331C105.207 94.3671 104.698 94.9845 104.396 95.7072C104.095 96.4298 104.016 97.2253 104.169 97.9929C104.321 98.7605 104.699 99.4657 105.254 100.019C105.809 100.573 106.516 100.95 107.286 101.103C108.056 101.256 108.855 101.178 109.58 100.879C110.306 100.58 110.926 100.073 111.363 99.4222C111.799 98.7716 112.032 98.0067 112.032 97.2242C112.032 96.176 111.615 95.1706 110.871 94.429C110.128 93.6874 109.119 93.2701 108.067 93.2688Z" fill="#26356B"></path><path d="M106.187 99.9028V94.9936H108.285C108.672 94.9745 109.059 95.0201 109.431 95.1285C109.672 95.2179 109.873 95.3883 110.001 95.6102C110.148 95.8424 110.223 96.1118 110.219 96.3859C110.23 96.7201 110.112 97.0458 109.89 97.2964C109.636 97.5666 109.293 97.7375 108.923 97.7782C109.12 97.8873 109.299 98.0254 109.455 98.1877C109.667 98.4356 109.856 98.7016 110.021 98.9827L110.625 99.9462H109.436L108.715 98.8767C108.557 98.6251 108.381 98.3852 108.188 98.1588C108.107 98.0662 108.004 97.995 107.888 97.9517C107.731 97.9114 107.568 97.8936 107.405 97.8987H107.202V99.9462L106.187 99.9028ZM107.183 97.07H107.917C108.217 97.0847 108.517 97.0653 108.812 97.0122C108.925 96.9746 109.023 96.9021 109.092 96.805C109.163 96.6945 109.199 96.5651 109.194 96.4341C109.201 96.2885 109.153 96.1455 109.059 96.0342C108.961 95.9287 108.829 95.8606 108.686 95.8415C108.606 95.8415 108.364 95.8415 107.961 95.8415H107.183V97.07Z" fill="#26356B"></path></g><defs><clipPath id="clip0_31_78"><rect width="113" height="106" fill="white"></rect></clipPath></defs></svg>